# xmcd
# 
# Track frame offsets:
#     150
#     8494
#     25815
#     39808
#     55268
#     69538
#     112433
#     129165
#     183220
#     203546
#     246115
#     266833
# 
# Disc length: 4134
# 
# Revision: 3
# Processed by: cddbd v1.5.2PL0 Copyright (c) Steve Scherf et al.
# Submitted via: fre:ac v1.0.17
# 
DISCID=9a10240c
DTITLE=Konrad Bones Windisch and Friends - Almfrieden Blues-Abend CD1
DYEAR=2007
DGENRE=Blues
TTITLE0=Boom Boom
TTITLE1=Nehi Woman Blues
TTITLE2=The Way The Water Flows
TTITLE3=Hesitation Blues
TTITLE4=Jitterbug Swing
TTITLE5=Grey Skies
TTITLE6=Deliverance
TTITLE7=St. James Infirmary
TTITLE8=Lonesome Valley
TTITLE9=Roll On Mississippi
TTITLE10=Pay Me My Money Down
TTITLE11=Where The Blues Comes From
EXTD=Recorded live 25/10/2007 at Gasthof Almfrieden/Hohe Wand
EXTT0=
EXTT1=
EXTT2=
EXTT3=
EXTT4=
EXTT5=
EXTT6=
EXTT7=
EXTT8=
EXTT9=
EXTT10=
EXTT11=
PLAYORDER=
